<?xml version="1.0" encoding="utf-8"?>
<!-- Generator: Adobe Illustrator 17.0.0, SVG Export Plug-In . SVG Version: 6.00 Build 0)  -->
<!DOCTYPE svg PUBLIC "-//W3C//DTD SVG 1.1//EN" "http://www.w3.org/Graphics/SVG/1.1/DTD/svg11.dtd">
<svg version="1.1" id="Calque_1" xmlns="http://www.w3.org/2000/svg" xmlns:xlink="http://www.w3.org/1999/xlink" x="0px" y="0px"
	 width="326px" height="197px" viewBox="0 0 326 197" enable-background="new 0 0 326 197" xml:space="preserve">
<g id="Calque_1_1_">
	<g enable-background="new    ">
		<path fill="#222222" d="M11.617,69.206H30.8c12.299,0,21.385,3.749,21.385,14.721c0,5.668-3.212,11.154-10.28,12.983v0.366
			c8.627,1.463,13.492,6.126,13.492,14.172c0,11.978-9.821,17.555-23.038,17.555H11.617V69.206z M29.79,93.984
			c8.444,0,11.932-3.2,11.932-8.777c0-5.486-3.854-7.771-11.656-7.771h-7.801v16.549H29.79z M31.259,120.773
			c8.811,0,13.675-3.292,13.675-10.058c0-6.218-4.772-9.144-13.675-9.144h-8.995v19.201H31.259z"/>
		<path fill="#222222" d="M67.053,69.206h36.07v8.96H77.7v15.269h21.568v8.96H77.7v17.646h26.341v8.96H67.053V69.206z"/>
		<path fill="#222222" d="M116.981,69.206h10.647v50.836h24.873v8.96h-35.52V69.206z"/>
	</g>
	<g enable-background="new    ">
		<path fill="#1D3CEF" d="M197.565,112.818h-20.101l-4.681,16.184h-10.922l19.642-59.796h12.482l19.549,59.796h-11.289
			L197.565,112.818z M195.18,104.498l-2.111-7.314c-1.836-6.309-3.672-13.166-5.416-19.749h-0.367
			c-1.651,6.674-3.395,13.44-5.322,19.749l-2.111,7.314H195.18z"/>
		<path fill="#1D3CEF" d="M245.199,68.109c7.344,0,13.309,3.565,17.072,7.588l-5.875,6.583c-3.12-3.017-6.516-4.937-11.105-4.937
			c-9.82,0-16.887,8.229-16.887,21.669c0,13.623,6.516,21.853,16.52,21.853c5.324,0,9.271-2.195,12.666-5.943l5.875,6.491
			c-4.865,5.577-11.105,8.687-18.725,8.687c-15.235,0-27.258-10.973-27.258-30.812C217.482,79.721,229.78,68.109,245.199,68.109z"/>
		<path fill="#1D3CEF" d="M284.941,78.167h-17.348v-8.96h45.249v8.96h-17.255v50.835h-10.646V78.167z"/>
	</g>
	<path fill="#1D3CEF" d="M158.851,0.036c-45.215,0-85.614,13.689-111.989,35.042l3.328,3.589
		C75.67,18.265,114.886,5.144,158.851,5.144c45.17,0,85.334,13.847,110.727,35.214l3.332-3.572
		C246.607,14.456,205.264,0.036,158.851,0.036z"/>
	<path fill="#1D3CEF" d="M160.923,197.036c45.215,0,85.614-13.689,111.989-35.042l-3.328-3.589
		c-25.479,20.401-64.696,33.522-108.661,33.522c-45.17,0-85.334-13.847-110.727-35.214l-3.332,3.572
		C73.166,182.616,114.511,197.036,160.923,197.036z"/>
</g>
</svg>
